<?xml version="1.0" encoding="utf-8"?>
<!-- Generator: Adobe Illustrator 18.1.1, SVG Export Plug-In . SVG Version: 6.00 Build 0)  -->
<svg version="1.1" xmlns="http://www.w3.org/2000/svg" xmlns:xlink="http://www.w3.org/1999/xlink" x="0px" y="0px"
	 viewBox="0 0 40 40" enable-background="new 0 0 40 40" xml:space="preserve">
<g id="Layer_1">
	<g>
		
			<polyline fill="none" stroke="#000000" stroke-width="2" stroke-linecap="round" stroke-linejoin="round" stroke-miterlimit="10" points="
			7.189,15.701 7.189,3.768 32.811,3.768 32.811,15.701 		"/>
		
			<rect x="5.916" y="16.692" fill="none" stroke="#000000" stroke-width="2" stroke-linecap="round" stroke-linejoin="round" stroke-miterlimit="10" width="28.168" height="10.741"/>
		<g>
			<path fill="none" stroke="#000000" stroke-width="2" stroke-linecap="round" stroke-linejoin="round" stroke-miterlimit="10" d="
				M23.469,20.803v0.284c0,0.686-0.557,1.245-1.244,1.245h-4.448c-0.688,0-1.245-0.559-1.245-1.245v-0.284"/>
		</g>
		<g>
			<path fill="none" stroke="#000000" stroke-width="2" stroke-linecap="round" stroke-linejoin="round" stroke-miterlimit="10" d="
				M23.1,7.6v0.275c0,0.678-0.547,1.225-1.223,1.225h-3.755c-0.675,0-1.222-0.547-1.222-1.225V7.6"/>
		</g>
		
			<polyline fill="none" stroke="#000000" stroke-width="2" stroke-linecap="round" stroke-linejoin="round" stroke-miterlimit="10" points="
			32.811,27.914 32.811,36.232 7.209,36.232 7.189,27.914 		"/>
		<g>
			<path fill="none" stroke="#000000" stroke-width="2" stroke-linecap="round" stroke-linejoin="round" stroke-miterlimit="10" d="
				M23.1,30.574v0.277c0,0.676-0.547,1.222-1.223,1.222h-3.755c-0.675,0-1.222-0.546-1.222-1.222v-0.277"/>
		</g>
		
			<line fill="none" stroke="#000000" stroke-width="2" stroke-linecap="round" stroke-linejoin="round" stroke-miterlimit="10" x1="32.811" y1="13.115" x2="7.189" y2="13.115"/>
		<g>
			
				<line fill="none" stroke="#000000" stroke-width="2" stroke-linecap="round" stroke-linejoin="round" stroke-miterlimit="10" x1="30.278" y1="16.617" x2="28.017" y2="13.115"/>
			
				<line fill="none" stroke="#000000" stroke-width="2" stroke-linecap="round" stroke-linejoin="round" stroke-miterlimit="10" x1="9.722" y1="16.617" x2="11.981" y2="13.115"/>
		</g>
	</g>
</g>
<g id="labels">
</g>
</svg>
